<svg width="322" height="150" viewBox="0 0 322 150" fill="none" xmlns="http://www.w3.org/2000/svg">
<g clip-path="url(#clip0_439_7331)">
<path d="M180.064 18H158.838C137.369 18 119.965 35.4037 119.965 56.8723V78.0988C119.965 99.5674 137.369 116.971 158.838 116.971H180.064C201.533 116.971 218.937 99.5674 218.937 78.0988V56.8723C218.937 35.4037 201.533 18 180.064 18Z" fill="#2B5799"/>
<path d="M198.112 18H140.79C129.289 18 119.965 27.3234 119.965 38.8245V96.1467C119.965 107.648 129.289 116.971 140.79 116.971H198.112C209.613 116.971 218.937 107.648 218.937 96.1467V38.8245C218.937 27.3234 209.613 18 198.112 18Z" fill="#2B5799"/>
<path d="M163.382 54.7969H155.851C153.551 54.7969 151.687 56.6616 151.687 58.9618V66.4928C151.687 68.793 153.551 70.6577 155.851 70.6577H163.382C165.683 70.6577 167.547 68.793 167.547 66.4928V58.9618C167.547 56.6616 165.683 54.7969 163.382 54.7969Z" fill="white"/>
<path d="M199.544 51.6249H192.014C189.713 51.6249 187.849 53.4896 187.849 55.7898V63.9552C187.849 66.2554 189.713 68.1201 192.014 68.1201H199.544C201.845 68.1201 203.709 66.2554 203.709 63.9552V55.7898C203.709 53.4896 201.845 51.6249 199.544 51.6249Z" fill="white"/>
<path d="M198.033 43.8234H198.033C189.271 43.8234 182.168 50.9264 182.168 59.6884V59.6886C182.168 68.4506 189.271 75.5536 198.033 75.5536H198.033C206.795 75.5536 213.898 68.4506 213.898 59.6886V59.6884C213.898 50.9264 206.795 43.8234 198.033 43.8234Z" stroke="#E63888" stroke-width="2.29663"/>
<path d="M157.364 47.2125H157.364C148.602 47.2125 141.499 54.3155 141.499 63.0775V63.0777C141.499 71.8397 148.602 78.9427 157.364 78.9427H157.364C166.126 78.9427 173.229 71.8397 173.229 63.0777V63.0775C173.229 54.3155 166.126 47.2125 157.364 47.2125Z" stroke="#E63888" stroke-width="2.29663"/>
<path d="M172.954 63.0771C174.649 61.2702 179.8 58.4007 182.783 61.3832" stroke="#E63888" stroke-width="2.29663"/>
<path d="M167.053 116.972V136.004C167.053 138.225 165.39 140.826 163.106 141.08C160.822 141.334 142.733 141.609 132.476 142.349C132.054 142.349 131.144 142.094 130.89 141.08C130.637 140.065 130.785 139.176 130.89 138.225C130.679 138.013 132.242 136.952 133.922 136.322C136.46 135.37 139.138 135.053 141.358 134.735V116.972" stroke="#D26489" stroke-width="1.14832"/>
<path d="M171.354 116.972V136.004C171.353 138.225 173.017 140.826 175.3 141.08C177.584 141.334 195.674 141.609 205.93 142.349C206.352 142.349 207.262 142.094 207.516 141.08C207.77 140.065 207.621 139.176 207.516 138.225C207.728 138.013 206.165 136.952 204.484 136.322C201.946 135.37 199.268 135.053 197.048 134.735V116.972" stroke="#D26489" stroke-width="1.14832"/>
<path d="M217.548 92.8626C226.852 95.4004 235.755 108.788 228.65 119.192" stroke="#2B5799" stroke-width="1.14832"/>
<path d="M-3 87.5C23.4113 147.212 58.2765 124.551 101.53 115.841" stroke="url(#paint0_linear_439_7331)" stroke-width="2.29663"/>
<path d="M110.261 105.52L116.194 101.992" stroke="#A9B0B6" stroke-width="1.14832" stroke-linecap="round"/>
<path d="M113.075 111.148L119.665 106.851" stroke="#A9B0B6" stroke-width="1.14832" stroke-linecap="round"/>
<path d="M99.0056 108.332C95.6287 110.584 98.5366 114.899 100.413 116.776C103.006 120.04 105.782 121.428 108.855 119.346L115.89 112.554L108.855 102.704C106.979 103.643 102.383 106.082 99.0056 108.332Z" fill="#717171"/>
<path d="M122.303 92.8626C112.998 95.4004 100.229 99.2155 103.699 106.157" stroke="#2B5799" stroke-width="1.14832"/>
<path d="M304.015 72.8767C361.431 119.958 266.121 70.5801 230.728 115.568" stroke="url(#paint1_linear_439_7331)" stroke-width="2.29663"/>
<path d="M227.385 124.696C231.022 126.496 233.306 121.82 233.992 119.257C235.523 115.378 235.337 112.279 231.997 110.661L222.598 107.963L217.586 118.981C219.335 120.136 223.746 122.897 227.385 124.696Z" fill="#717171"/>
<path d="M220.317 108.934L222.399 108.239L224.482 111.016L221.705 117.957L217.54 118.652L216.846 115.875L220.317 108.934Z" fill="#A9B0B6"/>
</g>
<defs>
<linearGradient id="paint0_linear_439_7331" x1="30" y1="127" x2="4" y2="98" gradientUnits="userSpaceOnUse">
<stop stop-color="#A9B0B6"/>
<stop offset="1" stop-color="#F6F7F9"/>
</linearGradient>
<linearGradient id="paint1_linear_439_7331" x1="292.143" y1="94.2224" x2="307.077" y2="72.8767" gradientUnits="userSpaceOnUse">
<stop stop-color="#A9B0B6"/>
<stop offset="1" stop-color="#F6F7F9"/>
</linearGradient>
<clipPath id="clip0_439_7331">
<rect width="322" height="150" fill="white"/>
</clipPath>
</defs>
</svg>