<svg width="184" height="104" viewBox="0 0 184 104" fill="none" xmlns="http://www.w3.org/2000/svg">
<path d="M88.894 78.3517V80.3099H87.0942V78.3517C87.0942 77.8622 87.5262 77.5125 87.9581 77.5125C88.5341 77.4426 88.894 77.8622 88.894 78.3517Z" fill="#A7A7A7"/>
<path d="M85.8706 98.4926V96.5344H87.6704V98.4926C87.6704 98.9821 87.2385 99.3317 86.8065 99.3317C86.3026 99.3317 85.8706 98.9821 85.8706 98.4926Z" fill="#A7A7A7"/>
<path d="M101.493 97.9331C99.405 97.9331 80.8311 98.1429 80.2551 98.1429V98.0729C80.2551 98.0729 80.2551 98.0729 80.3271 98.0729C81.623 98.1428 83.3508 93.5972 84.1427 87.9326C84.8626 82.6876 84.5746 78.3518 83.4948 77.7224L89.1101 79.191C89.1101 79.191 90.19 79.4707 104.012 83.1072C106.46 84.0863 103.941 97.7233 101.493 97.9331Z" fill="#D6D6D6"/>
<path d="M83.5667 77.7224C83.4947 77.6524 83.5667 77.6524 83.5667 77.7224V77.7224Z" fill="#FCC621"/>
<path d="M84.1429 87.8627C83.9989 88.632 83.9269 89.4012 83.7829 90.1705C82.919 94.5063 81.6232 97.7932 80.4713 98.003C80.3993 98.003 80.3993 98.003 80.3273 98.003C79.5354 97.9331 79.1035 96.1847 79.0315 93.5972C78.8875 86.9536 81.3352 77.4427 83.207 77.5126C84.5748 77.6525 84.9348 82.268 84.1429 87.8627Z" fill="#A7A7A7"/>
<path d="M86.6626 98.9121L86.7346 98.1429C92.278 98.4226 97.1734 94.2966 97.6774 88.9816C98.1813 83.6667 94.0778 79.191 88.6064 78.9113L88.6784 78.142C94.6537 78.4217 99.0452 83.317 98.4693 88.9816C97.8214 94.856 92.5659 99.1919 86.6626 98.9121Z" fill="#A7A7A7"/>
<path d="M84.5027 89.8907C83.6388 94.2266 82.3429 97.5134 81.191 97.7232C81.1191 97.7232 81.0471 97.7232 81.0471 97.7232C79.1753 97.7932 76.8715 97.933 74.3518 98.0729C66.2887 98.4925 56.1378 99.1219 52.3223 99.4716C47.9307 99.8912 43.9712 100.94 39.7956 101.64C35.6201 102.409 30.8686 102.828 26.6931 102.129C23.4535 101.57 20.7898 100.451 17.4061 100.101C15.3184 99.8912 13.2306 100.031 11.1428 100.171C9.05505 100.241 6.89529 100.311 4.87952 99.9611C2.93573 99.6115 1.20793 98.7722 1.35191 97.7932C1.49589 96.6743 3.94362 95.905 6.39135 95.5553C8.26314 95.3455 10.1349 95.2756 12.0067 95.0658C13.8785 94.856 15.6783 94.4364 16.6142 93.6671C17.5501 92.8979 17.3341 91.8489 18.27 91.0796C19.2779 90.2404 21.4377 89.7509 23.5974 89.6809C25.7572 89.5411 27.845 89.6809 30.0047 89.7509C35.6201 89.8907 41.2355 89.1914 46.8509 88.8417C51.2424 88.562 55.8499 88.4921 60.0974 89.1215C61.1053 89.2613 62.0412 89.5411 63.0491 89.6809C63.913 89.7509 64.8489 89.7509 65.7128 89.7509C68.3045 89.8907 70.8962 89.9607 73.4879 90.1005C74.9277 90.1705 76.7995 90.3803 77.0155 91.0097C77.3035 91.709 75.7197 92.1985 74.3518 92.4783C72.1201 92.9678 68.2325 93.1776 67.5846 93.9469C67.2966 94.2965 67.7285 94.6462 70.0323 94.7161C74.5678 94.856 79.8952 94.1567 83.2788 91.0796C83.7828 90.7999 84.1427 90.3103 84.5027 89.8907Z" stroke="#E63888" stroke-width="0.75" stroke-miterlimit="10"/>
<path d="M61.3214 102.129C60.9614 102.619 59.7375 102.619 59.1616 102.619C56.1379 102.619 50.7385 103.248 49.0827 102.619C48.5788 102.409 48.2188 102.059 48.4348 101.779C48.5788 101.57 49.1547 101.36 49.3707 101.29C54.3381 99.8212 59.8815 100.73 60.9614 101.36C61.3214 101.57 61.4653 101.849 61.3214 102.129Z" stroke="#E63888" stroke-width="0.75" stroke-miterlimit="10"/>
<path d="M13.9505 92.8279C13.8065 93.1076 13.4466 93.2475 13.0146 93.3174C12.6547 93.3874 12.2227 93.3874 11.7908 93.3874C8.83908 93.3874 3.36769 94.0867 1.71187 93.4573C1.20793 93.2475 0.847966 92.8279 1.06394 92.4083C1.20793 92.1286 1.63988 91.9887 1.99984 91.8488C4.87952 90.7999 8.83908 90.5201 12.3667 91.4292C12.7266 91.4992 13.3026 91.709 13.5906 91.9188C13.9505 92.1286 14.1665 92.4782 13.9505 92.8279Z" stroke="#E63888" stroke-width="0.75" stroke-miterlimit="10"/>
<path d="M67.7286 19.3982C67.6566 20.2374 67.4406 21.1465 67.0807 21.9158C66.3607 23.3843 64.9929 24.5033 63.4091 24.9229C62.4732 25.2026 61.4653 25.2026 60.5294 24.8529C62.1852 26.3215 62.6171 28.8391 61.7532 30.8672C60.8173 32.8253 58.7296 34.224 56.4978 34.5037C52.8982 34.9233 50.3785 32.8253 49.8746 32.5456C48.3627 37.7206 46.8509 42.9656 45.3391 48.1407L40.8756 45.5532C40.8036 42.1964 40.6596 38.7696 40.5876 35.4128C38.7878 36.1122 36.556 35.6926 35.3322 34.224C33.8203 32.4757 34.0363 29.6084 35.6921 28.0699C32.8844 28.2097 29.9328 27.0908 28.133 24.9928C26.3332 22.8948 25.8292 19.7478 27.0531 17.2302C28.277 14.7126 31.3006 13.1741 34.1083 13.6636C32.7405 11.3558 33.1724 8.41865 34.6123 6.32066C36.0521 4.15273 38.4278 2.68413 40.9475 1.84494C43.6113 0.865872 46.5629 0.516206 49.2266 1.42534C52.1783 2.4044 54.1941 5.06186 54.1941 7.43959H54.2661C59.3775 7.15986 64.417 10.097 66.6487 14.5728C67.3686 15.9714 67.8006 17.7198 67.7286 19.3982Z" fill="#6D2077"/>
<path d="M49.2984 13.6636C49.3704 13.0342 49.4424 12.3349 49.3704 11.7055C49.0824 8.97812 46.4907 8.62845 44.9069 9.46765C43.755 10.097 43.0351 11.3558 42.6751 12.6146C42.3872 12.0552 41.6673 11.7754 41.0193 11.9153C40.3714 12.0552 39.8675 12.5447 39.5795 13.1741C39.0755 14.4329 39.5795 15.6917 40.2274 16.8806C40.0114 16.3211 39.2195 16.1812 38.7156 16.461C38.2116 16.7407 37.9237 17.3002 37.8517 17.8596C37.7797 19.0485 38.6436 20.2374 39.8675 20.5171C39.0755 20.8668 38.2116 20.657 37.4917 20.1674C36.7718 19.6779 36.2679 18.9086 35.9079 18.1394C35.4759 17.3701 35.188 16.461 35.6199 15.6917C36.0519 15.0623 36.9878 14.6427 38.4276 15.2022C37.9237 14.2231 37.4917 13.1042 37.5637 11.9852C37.6357 10.8663 38.2116 9.74738 39.2195 9.25785C40.2274 8.76832 41.6673 8.97812 42.2432 9.95718C42.3872 8.76832 43.2511 7.64939 44.403 7.08992C46.4907 6.11086 49.4424 6.81019 50.8102 8.48859C51.5302 9.32778 51.8901 10.4467 51.6741 11.4258C51.3862 12.5447 50.3783 13.3839 49.2984 13.6636Z" fill="#53135B"/>
<path d="M52.1064 21.8458C51.6744 23.1046 50.5225 24.1536 49.2267 24.5032C47.9308 24.8529 46.347 24.5732 45.3391 23.734C45.6271 24.6431 46.059 25.4823 46.8509 26.0418C47.6429 26.6012 48.6507 26.811 49.5146 26.5313C50.4505 26.2516 51.1705 25.5522 51.6024 24.6431C52.0344 23.8039 52.1064 22.8248 52.1064 21.8458Z" fill="#53135B"/>
<path d="M54.7699 20.2373C55.4898 20.0275 56.0658 19.538 56.3538 18.9086C56.9297 17.7197 56.7137 16.1113 55.7058 15.2721C54.9139 14.5727 53.834 14.5028 52.7542 14.5727C52.9701 14.0133 53.3301 13.5937 54.338 13.5937C55.9218 13.5237 57.5776 14.5028 58.3695 16.391C59.2334 18.4191 58.4415 20.2373 57.0017 20.7968C56.2818 21.0765 55.4898 20.7269 54.7699 20.2373Z" fill="#53135B"/>
<path d="M61.7533 30.7973C60.8174 32.7554 58.7296 34.1541 56.4979 34.4338C52.8983 34.8534 50.3066 32.6855 49.8746 32.4757C48.3628 37.6507 46.851 42.8957 45.3391 48.0708L40.8756 45.4832C40.8036 42.1264 40.6596 38.6997 40.5877 35.3429C38.7879 36.0423 36.5561 35.6227 35.3322 34.1541C33.8204 32.4057 33.9644 29.5385 35.6922 27.9999C32.8845 28.1398 29.9328 27.0209 28.133 24.9229C26.6932 23.1746 26.0453 20.7968 26.5492 18.6988C26.6932 18.8387 26.7652 19.0485 26.8372 19.2583C29.2849 25.1327 36.1961 27.0209 41.3076 23.8739C40.6596 26.1117 40.7316 28.4895 42.8194 29.1189C43.8273 29.3986 45.0512 28.7692 45.1951 27.7901C46.851 29.2587 48.6508 30.7973 50.8825 30.9371C53.1863 31.077 53.4022 29.1888 52.6103 28.6993C54.1222 28.5594 55.562 27.8601 56.7139 26.8111C58.7296 24.853 59.3776 21.9158 59.8815 19.1884C61.3214 20.9367 62.5452 22.8249 63.4091 24.9229C62.4732 25.2026 61.4653 25.2026 60.5294 24.853C62.2573 26.2516 62.6892 28.8391 61.7533 30.7973Z" fill="#53135B"/>
<path d="M59.8814 93.2475V94.1567C59.8814 94.4364 59.5934 94.7161 59.3055 94.7161H28.9968C28.7089 94.7161 28.4209 94.4364 28.4209 94.1567V93.2475H59.8814Z" fill="#EAEAEA"/>
<path d="M58.7295 58.6306H29.5728V60.5188H58.7295V58.6306Z" fill="#EAEAEA"/>
<path d="M58.7295 73.6663H29.5728V76.114H58.7295V73.6663Z" fill="#EAEAEA"/>
<path d="M63.6969 78.5616V90.8698C63.6969 92.1985 62.617 93.3175 61.1772 93.3175H27.1249C25.7571 93.3175 24.6052 92.2685 24.6052 90.8698V78.5616C24.6052 77.2328 25.6851 76.1139 27.1249 76.1139H61.2492C62.617 76.1139 63.6969 77.1629 63.6969 78.5616Z" fill="#F7F7F7"/>
<path d="M45.1952 89.5411L47.0669 93.3175H28.709L30.5808 89.5411C30.9407 88.8418 31.5887 88.4222 32.3806 88.4222H43.3954C44.1873 88.4222 44.8352 88.8418 45.1952 89.5411Z" fill="#D6D6D6"/>
<path d="M63.6969 62.9665V71.2885C63.6969 72.6172 62.617 73.7362 61.1772 73.7362H27.1249C25.7571 73.7362 24.6052 72.6872 24.6052 71.2885V62.9665C24.6052 61.6377 25.6851 60.5188 27.1249 60.5188H61.2492C62.617 60.5188 63.6969 61.5678 63.6969 62.9665Z" fill="#F7F7F7"/>
<path d="M43.8992 70.5892L45.555 73.6663H30.2207L31.8765 70.5892C32.0925 70.1696 32.5245 69.9598 32.9564 69.9598H42.8193C43.3233 69.9598 43.6832 70.1696 43.8992 70.5892Z" fill="#D6D6D6"/>
<path d="M63.6969 47.9308V56.183C63.6969 57.5117 62.617 58.6306 61.1772 58.6306H27.1249C25.7571 58.6306 24.6052 57.5816 24.6052 56.183V47.9308C24.6052 46.6021 25.6851 45.4832 27.1249 45.4832H61.2492C62.617 45.4832 63.6969 46.5322 63.6969 47.9308Z" fill="#F7F7F7"/>
<path d="M43.8992 55.5536L45.555 58.6307H30.2207L31.8765 55.5536C32.0925 55.134 32.5245 54.9242 32.9564 54.9242H42.8193C43.3233 54.9242 43.6832 55.134 43.8992 55.5536Z" fill="#D6D6D6"/>
<path d="M75.7197 57.4418C74.9998 57.3019 74.2079 57.5117 73.5599 57.8614C72.912 58.281 72.4081 58.8404 72.0481 59.4698C72.2641 59.0502 71.9041 58.4208 71.1122 58.3509C70.3203 58.281 69.5284 58.8404 69.3844 59.6097C69.2404 60.379 69.6724 61.2181 70.3923 61.4279L67.2246 65.2043C67.1527 65.2743 67.1527 65.4141 67.2246 65.554C67.2966 65.6939 67.5126 65.7638 67.6566 65.6239C68.6645 64.8547 69.9603 64.0155 70.8242 63.3861C70.9682 64.9945 72.84 66.0435 74.0639 65.3442C74.6398 65.0645 74.9998 64.3651 74.9278 63.7357C74.8558 63.1063 74.3519 62.5469 73.7039 62.407C76.0077 62.1972 77.5195 60.1692 77.3035 58.9104C77.0876 58.1411 76.4396 57.5816 75.7197 57.4418Z" fill="#6D2077"/>
<path d="M69.3124 59.6097C69.1684 60.379 69.6004 61.2182 70.3203 61.428L67.1526 65.2043C67.0806 65.2743 67.0806 65.4141 67.1526 65.554C67.2246 65.6939 67.4406 65.7638 67.5846 65.6239C68.5925 64.8547 69.8883 64.0155 70.7522 63.3861C70.8962 64.9945 72.768 66.0435 73.9919 65.3442C74.3518 65.1344 74.6398 64.8547 74.7838 64.4351C74.3518 64.6449 73.2 64.7847 72.1921 64.2952C71.1122 63.8057 71.2562 62.8966 71.7601 62.7567C70.8962 62.6868 70.3923 61.8476 70.5362 61.2881C70.6082 61.0783 70.7522 60.9384 70.9682 60.9384C70.3923 60.7286 69.9603 60.0992 70.1043 59.4698C70.2483 58.9104 70.7522 58.4208 71.3282 58.4208C70.5363 58.1411 69.5284 58.7006 69.3124 59.6097Z" fill="#53135B"/>
<path d="M59.3054 52.0569C59.3054 53.6654 58.0096 54.9242 56.3538 54.9242C54.698 54.9242 53.4021 53.6654 53.4021 52.0569C53.4021 50.4484 54.698 49.1896 56.3538 49.1896C58.0096 49.1896 59.3054 50.4484 59.3054 52.0569Z" stroke="#D6D6D6" stroke-miterlimit="10"/>
<path d="M58.3697 52.0569C58.3697 53.1059 57.5058 54.0151 56.3539 54.0151C55.274 54.0151 54.3381 53.1759 54.3381 52.0569C54.3381 51.0079 55.202 50.0988 56.3539 50.0988C57.4338 50.0988 58.3697 51.0079 58.3697 52.0569Z" fill="#D6D6D6"/>
<path d="M31.5886 49.1197C31.5886 49.6092 31.1566 50.0288 30.6527 50.0288C30.1488 50.0288 29.7168 49.6092 29.7168 49.1197C29.7168 48.6302 30.1488 48.2106 30.6527 48.2106C31.2286 48.2106 31.5886 48.6302 31.5886 49.1197Z" fill="#E4002B"/>
<path d="M34.5402 49.1197C34.5402 49.6092 34.1083 50.0288 33.6044 50.0288C33.1004 50.0288 32.6685 49.6092 32.6685 49.1197C32.6685 48.6302 33.1004 48.2106 33.6044 48.2106C34.1083 48.2106 34.5402 48.6302 34.5402 49.1197Z" fill="#EAEAEA"/>
<path d="M37.4919 49.1197C37.4919 49.6092 37.06 50.0288 36.556 50.0288C36.0521 50.0288 35.6201 49.6092 35.6201 49.1197C35.6201 48.6302 36.0521 48.2106 36.556 48.2106C37.06 48.2106 37.4919 48.6302 37.4919 49.1197Z" fill="#EAEAEA"/>
<path d="M30.7247 64.9946C31.2416 64.9946 31.6606 64.5875 31.6606 64.0854C31.6606 63.5833 31.2416 63.1763 30.7247 63.1763C30.2078 63.1763 29.7888 63.5833 29.7888 64.0854C29.7888 64.5875 30.2078 64.9946 30.7247 64.9946Z" fill="#E4002B"/>
<path d="M33.6044 64.9946C34.1212 64.9946 34.5402 64.5875 34.5402 64.0854C34.5402 63.5833 34.1212 63.1763 33.6044 63.1763C33.0875 63.1763 32.6685 63.5833 32.6685 64.0854C32.6685 64.5875 33.0875 64.9946 33.6044 64.9946Z" fill="#EAEAEA"/>
<path d="M37.4919 64.0854C37.4919 64.575 37.06 64.9946 36.556 64.9946C36.0521 64.9946 35.6201 64.575 35.6201 64.0854C35.6201 63.5959 36.0521 63.1763 36.556 63.1763C37.06 63.1763 37.4919 63.5959 37.4919 64.0854Z" fill="#EAEAEA"/>
<path d="M30.7247 80.6596C31.2416 80.6596 31.6606 80.2525 31.6606 79.7504C31.6606 79.2483 31.2416 78.8413 30.7247 78.8413C30.2078 78.8413 29.7888 79.2483 29.7888 79.7504C29.7888 80.2525 30.2078 80.6596 30.7247 80.6596Z" fill="#E4002B"/>
<path d="M33.6044 80.6596C34.1212 80.6596 34.5402 80.2525 34.5402 79.7504C34.5402 79.2483 34.1212 78.8413 33.6044 78.8413C33.0875 78.8413 32.6685 79.2483 32.6685 79.7504C32.6685 80.2525 33.0875 80.6596 33.6044 80.6596Z" fill="#EAEAEA"/>
<path d="M37.4919 79.7504C37.4919 80.24 37.06 80.6596 36.556 80.6596C36.0521 80.6596 35.6201 80.24 35.6201 79.7504C35.6201 79.2609 36.0521 78.8413 36.556 78.8413C37.06 78.8413 37.4919 79.2609 37.4919 79.7504Z" fill="#EAEAEA"/>
<path d="M86.3744 87.8627C85.5825 93.5273 83.8547 98.073 82.5589 98.003C82.5589 98.003 82.5589 98.003 82.4869 98.003H80.2551V97.9331C80.2551 97.9331 80.2551 97.9331 80.3271 97.9331C81.623 98.003 83.3508 93.4574 84.1427 87.7928C84.8626 82.5478 84.5746 78.2119 83.4948 77.5826L86.3025 78.2819C86.9504 79.9603 87.0224 83.6667 86.3744 87.8627Z" fill="#EAEAEA"/>
<path opacity="0.06" d="M146.314 99.6832C167.127 99.6832 184 98.3143 184 96.6256C184 94.9369 167.127 93.568 146.314 93.568C125.5 93.568 108.627 94.9369 108.627 96.6256C108.627 98.3143 125.5 99.6832 146.314 99.6832Z" fill="black"/>
<path d="M140.438 83.1053V94.7267C140.438 95.8401 139.776 97.1623 138.894 97.3015C138.012 97.4407 130.792 97.5799 126.714 97.9278C126.549 97.9278 126.163 97.7886 126.108 97.3015C126.053 96.8144 126.053 96.3273 126.108 95.8401C125.997 95.701 126.659 95.2138 127.32 94.8659C128.312 94.3788 129.415 94.2396 130.296 94.1004V83.1053" fill="white"/>
<path d="M140.438 83.1053V94.7267C140.438 95.8401 139.776 97.1623 138.894 97.3015C138.012 97.4407 130.792 97.5799 126.714 97.9278C126.549 97.9278 126.163 97.7886 126.108 97.3015C126.053 96.8144 126.053 96.3273 126.108 95.8401C125.997 95.701 126.659 95.2138 127.32 94.8659C128.312 94.3788 129.415 94.2396 130.296 94.1004V83.1053" stroke="#4B75B1" stroke-miterlimit="10"/>
<path d="M157.503 83.1053V94.7267C157.503 95.8401 156.842 97.1623 155.96 97.3015C155.078 97.4407 147.858 97.5799 143.78 97.9278C143.614 97.9278 143.228 97.7886 143.173 97.3015C143.118 96.8144 143.118 96.3273 143.173 95.8401C143.063 95.701 143.724 95.2138 144.386 94.8659C145.378 94.3788 146.48 94.2396 147.362 94.1004V83.1053" fill="white"/>
<path d="M157.503 83.1053V94.7267C157.503 95.8401 156.842 97.1623 155.96 97.3015C155.078 97.4407 147.858 97.5799 143.78 97.9278C143.614 97.9278 143.228 97.7886 143.173 97.3015C143.118 96.8144 143.118 96.3273 143.173 95.8401C143.063 95.701 143.724 95.2138 144.386 94.8659C145.378 94.3788 146.48 94.2396 147.362 94.1004V83.1053" stroke="#4B75B1" stroke-miterlimit="10"/>
<path d="M120.091 64.795C120.584 66.0613 121.693 69.5933 118.428 72.3257C115.593 74.6582 111.034 75.1914 109 75.258" stroke="#18579F" stroke-width="2" stroke-miterlimit="10"/>
<path d="M128.86 36.5156H158.282C164.195 36.5156 168.968 41.1715 168.968 46.9393V75.6392C168.968 81.407 164.195 86.0629 158.282 86.0629H128.86C122.947 86.0629 118.174 81.407 118.174 75.6392V46.9393C118.174 41.1715 122.947 36.5156 128.86 36.5156Z" fill="#4B75B1"/>
<path d="M168.48 62.1793C170.057 62.1793 171.338 69.6886 167.889 75.7103C164.932 80.9527 159.118 83.7864 156.605 84.849" stroke="#18579F" stroke-width="2" stroke-miterlimit="10"/>
<path d="M128.787 62.7832C128.431 59.9341 131.779 57.9189 134.344 58.9612C131.779 59.0307 129.571 60.2121 128.787 62.7832Z" fill="white"/>
<path d="M151.584 59.2393C153.935 57.5715 157.426 59.5172 157.639 62.2274C156.357 60.0037 154.291 58.6834 151.584 59.2393Z" fill="white"/>
<path d="M133.916 62.2969H139.188C140.47 62.2969 141.539 63.3392 141.539 64.5901V69.7324C141.539 70.9833 140.47 72.0257 139.188 72.0257H133.916C132.634 72.0257 131.565 70.9833 131.565 69.7324V64.5901C131.565 63.3392 132.634 62.2969 133.916 62.2969Z" fill="white"/>
<path d="M147.88 62.2969H153.151C154.434 62.2969 155.502 63.3392 155.502 64.5901V69.7324C155.502 70.9833 154.434 72.0257 153.151 72.0257H147.88C146.597 72.0257 145.529 70.9833 145.529 69.7324V64.5901C145.529 63.3392 146.597 62.2969 147.88 62.2969Z" fill="white"/>
</svg>