<svg width="28" height="37" viewBox="0 0 28 37" fill="none" xmlns="http://www.w3.org/2000/svg">
<g clip-path="url(#clip0_809_614)">
<path d="M19.2604 16.7134C18.825 17.1488 18.0994 17.1488 17.664 16.7134L12.6737 11.7343L4.80313 19.5937L4.06631 18.8904C2.76012 17.5842 2.76012 15.463 4.06631 14.1569L8.79982 9.42335C10.106 8.11717 12.2272 8.11717 13.5333 9.42335L19.2604 15.1393C19.6958 15.5747 19.6958 16.278 19.2604 16.7134ZM20.0419 14.3467C20.9127 15.2174 20.9127 16.6353 20.0419 17.5061C18.6241 18.9239 17.1281 17.7517 16.8825 17.5061L12.6849 13.3084L6.46656 19.5267C6.03116 19.9621 6.03116 20.6654 6.46656 21.1008C6.90195 21.5362 7.60528 21.5362 8.05184 21.1008L13.2096 15.9431L14.0022 16.7357L8.84448 21.8935C8.40908 22.3289 8.40908 23.0322 8.84448 23.4676C9.27987 23.903 9.9832 23.903 10.4298 23.4676L15.5875 18.3099L16.3801 19.1025L11.2224 24.2602C10.787 24.6956 10.787 25.399 11.2224 25.8344C11.6578 26.2698 12.3611 26.2698 12.7965 25.8344L17.9543 20.6766L18.7469 21.4693L13.5892 26.627C13.1538 27.0624 13.1538 27.7657 13.5892 28.2011C14.0245 28.6365 14.7279 28.6365 15.1633 28.2011L24.4517 18.8904C25.7579 17.5842 25.7579 15.463 24.4517 14.1569L19.7182 9.42335C18.4343 8.1395 16.3578 8.11717 15.0516 9.35637L20.0419 14.3467Z" fill="#384553"/>
</g>
<defs>
<clipPath id="clip0_809_614">
<rect width="26.7935" height="26.7935" fill="white" transform="translate(0.862305 5.08875)"/>
</clipPath>
</defs>
</svg>