<svg width="28" height="36" viewBox="0 0 28 36" fill="none" xmlns="http://www.w3.org/2000/svg">
<g clip-path="url(#clip0_809_669)">
<path d="M18.0971 24.3144C17.2343 24.3162 16.4073 24.6597 15.7971 25.2698C15.187 25.88 14.8435 26.707 14.8417 27.5698C14.8459 27.6843 14.8571 27.7983 14.8752 27.9114C14.0203 27.7267 13.2288 27.3211 12.5796 26.735C11.9303 26.149 11.446 25.4031 11.1749 24.5715C10.9038 23.74 10.8555 22.8519 11.0346 21.9958C11.2137 21.1398 11.6141 20.3456 12.1958 19.6925C12.5414 19.7487 12.8907 19.7778 13.2408 19.7796C15.1134 19.7655 16.9047 19.0121 18.2245 17.6835C19.5443 16.3549 20.2858 14.5587 20.2875 12.686V7.64216C20.2884 7.48043 20.2357 7.32296 20.1375 7.19445C20.0393 7.06594 19.9012 6.97368 19.7449 6.93213L17.5478 6.35607C17.5446 6.37153 17.5446 6.3875 17.5478 6.40296C17.4804 6.15329 17.3444 5.92747 17.1553 5.75101C16.9663 5.57455 16.7316 5.45448 16.4779 5.40438C16.2242 5.35428 15.9615 5.37614 15.7195 5.46748C15.4776 5.55883 15.266 5.71603 15.1087 5.92131C14.9514 6.1266 14.8546 6.37178 14.8294 6.62917C14.8041 6.88656 14.8513 7.14588 14.9657 7.37784C15.08 7.6098 15.257 7.80515 15.4766 7.94182C15.6961 8.07849 15.9495 8.15103 16.2082 8.15124C16.3856 8.15314 16.5616 8.11978 16.7261 8.05309C16.8905 7.98639 17.0401 7.8877 17.166 7.76273L18.8205 8.19813V12.6793C18.8205 14.1734 18.227 15.6062 17.1706 16.6627C16.1141 17.7192 14.6813 18.3127 13.1872 18.3127C11.6931 18.3127 10.2603 17.7192 9.20383 16.6627C8.14738 15.6062 7.55387 14.1734 7.55387 12.6793V8.20482L9.20837 7.76943C9.33434 7.8944 9.48389 7.99309 9.64832 8.05979C9.81276 8.12648 9.9888 8.15984 10.1662 8.15794C10.4249 8.15773 10.6783 8.08519 10.8978 7.94852C11.1174 7.81185 11.2944 7.6165 11.4087 7.38454C11.5231 7.15258 11.5703 6.89325 11.545 6.63587C11.5198 6.37848 11.423 6.13329 11.2657 5.92801C11.1084 5.72273 10.8968 5.56553 10.6549 5.47418C10.4129 5.38283 10.1502 5.36098 9.8965 5.41108C9.64277 5.46118 9.40812 5.58125 9.21905 5.75771C9.02998 5.93417 8.89403 6.15999 8.82656 6.40966C8.82981 6.3942 8.82981 6.37823 8.82656 6.36277L6.62949 6.93883C6.47319 6.98038 6.3351 7.07264 6.2369 7.20115C6.1387 7.32966 6.08595 7.48713 6.08693 7.64886V12.6927C6.08799 14.1253 6.52319 15.5239 7.33513 16.7041C8.14707 17.8844 9.29763 18.7908 10.6351 19.304C9.97333 20.2312 9.5703 21.3179 9.46742 22.4524C9.36454 23.5869 9.56552 24.7284 10.0497 25.7595C10.5339 26.7906 11.2839 27.6743 12.2226 28.3197C13.1612 28.9651 14.2548 29.349 15.391 29.432C15.71 29.8919 16.1423 30.2619 16.6461 30.506C17.1499 30.7502 17.7081 30.8603 18.2669 30.8257C18.8257 30.7911 19.3661 30.613 19.8359 30.3086C20.3057 30.0043 20.6891 29.5838 20.9491 29.088C21.209 28.5922 21.3367 28.0377 21.3198 27.4782C21.3029 26.9186 21.1419 26.3728 20.8525 25.8936C20.5631 25.4144 20.155 25.0179 19.6677 24.7425C19.1803 24.467 18.6301 24.3219 18.0703 24.3211L18.0971 24.3144ZM17.3402 7.60197C17.3402 7.60197 17.3402 7.60197 17.3402 7.55508C17.3402 7.50819 17.3469 7.58857 17.3402 7.60197ZM8.85335 7.12639C8.84948 7.10423 8.84948 7.08156 8.85335 7.0594C8.85088 7.07718 8.85088 7.09521 8.85335 7.11299V7.12639ZM18.0971 29.4186C17.7341 29.4186 17.3793 29.3109 17.0774 29.1092C16.7756 28.9076 16.5404 28.6209 16.4015 28.2856C16.2625 27.9502 16.2262 27.5812 16.297 27.2251C16.3678 26.8691 16.5426 26.5421 16.7993 26.2854C17.056 26.0287 17.383 25.8539 17.739 25.7831C18.0951 25.7123 18.4641 25.7486 18.7995 25.8876C19.1348 26.0265 19.4215 26.2617 19.6231 26.5635C19.8248 26.8654 19.9325 27.2202 19.9325 27.5832C19.9289 28.0676 19.734 28.531 19.3902 28.8723C19.0464 29.2137 18.5816 29.4052 18.0971 29.4052V29.4186Z" fill="#384553"/>
</g>
<defs>
<clipPath id="clip0_809_669">
<rect width="26.7935" height="26.7935" fill="white" transform="translate(0.862305 4.70831)"/>
</clipPath>
</defs>
</svg>