<svg width="30" height="49" viewBox="0 0 30 49" fill="none" xmlns="http://www.w3.org/2000/svg">
<path d="M21.9904 23.3317C19.1622 21.7384 16.2505 20.2756 13.4431 18.658C12.2824 18.0081 11.2195 17.197 10.2862 16.249C9.779 15.7876 9.38714 15.2137 9.14206 14.5734C8.89699 13.9331 8.80554 13.2442 8.87507 12.5621C8.9446 11.88 9.17316 11.2238 9.54239 10.6461C9.91162 10.0684 10.4112 9.58533 11.001 9.23579C11.7991 8.80311 12.671 8.52348 13.5718 8.41132C16.1248 8.11333 18.702 8.71091 20.8633 10.102C22.0218 10.7753 23.2782 11.2635 24.5873 11.5492C25.2332 11.6692 25.9004 11.5903 26.5004 11.3228C27.1005 11.0554 27.6052 10.6121 27.9478 10.0516C28.3318 9.54613 28.5508 8.93461 28.5747 8.30029C28.5987 7.66597 28.4265 7.03967 28.0817 6.50671C27.5366 5.57404 26.8257 4.74879 25.9841 4.07158C22.8568 1.734 19.0573 0.470928 15.1529 0.471061C12.274 0.463825 9.44138 1.19505 6.92568 2.59484C4.29985 4.01001 2.30015 6.35837 1.32149 9.17616C0.342835 11.9939 0.456383 15.0763 1.63971 17.8144C2.79332 20.5782 4.86653 22.8585 7.50837 24.2692C9.80088 25.5929 12.1908 26.7374 14.5407 27.9585C16.5569 28.8966 18.3945 30.1785 19.971 31.7468C20.86 32.5041 21.4524 33.5514 21.6434 34.7035C21.8344 35.8555 21.6117 37.038 21.0147 38.0416C20.5594 38.6914 19.9693 39.2353 19.2845 39.636C18.5998 40.0368 17.8366 40.285 17.0471 40.3637C13.9966 40.8286 10.8834 40.1167 8.33806 38.3721C7.42742 37.7486 6.45804 37.2156 5.44373 36.7806C4.83379 36.493 4.1554 36.3823 3.48568 36.4611C2.81595 36.5399 2.18177 36.805 1.65521 37.2263C1.12866 37.6475 0.730861 38.2081 0.507041 38.8442C0.283221 39.4803 0.242358 40.1665 0.389097 40.8246C0.68487 42.0819 1.40174 43.2002 2.42069 43.9938C5.24328 46.2319 8.62858 47.648 12.2041 48.0862C15.7796 48.5245 19.4066 47.9678 22.6862 46.4776C24.2103 45.7501 25.5687 44.7173 26.6773 43.4432C27.7859 42.1692 28.621 40.6811 29.1309 39.071C29.6409 37.461 29.8147 35.7635 29.6417 34.0835C29.4687 32.4036 28.9526 30.777 28.1252 29.3047C26.7314 26.7392 24.5923 24.6566 21.9904 23.3317Z" fill="white"/>
</svg>