<svg width="28" height="36" viewBox="0 0 28 36" fill="none" xmlns="http://www.w3.org/2000/svg">
<g clip-path="url(#clip0_809_1119)">
<path d="M21.3102 10.8181C21.1163 11.0101 21.0009 11.2674 20.9865 11.5399C20.972 11.8123 21.0596 12.0804 21.2321 12.2918C22.1022 13.3556 22.7102 14.609 23.0069 15.9509C23.3036 17.2929 23.2807 18.6857 22.9401 20.0172C22.552 21.5987 21.7392 23.0441 20.5894 24.1973C19.4396 25.3504 17.9966 26.1675 16.4162 26.5602C14.8359 26.9529 13.1782 26.9064 11.6224 26.4256C10.0666 25.9448 8.6717 25.0481 7.58843 23.8322C6.50515 22.6164 5.77468 21.1277 5.47591 19.5269C5.17714 17.9261 5.32143 16.2741 5.8932 14.7494C6.46498 13.2246 7.44249 11.8851 8.72015 10.8755C9.99781 9.86584 11.527 9.22451 13.1427 9.02074V11.2792C11.7186 11.5219 10.4113 12.219 9.4164 13.2664C8.42146 14.3138 7.79231 15.6551 7.62304 17.0897C7.45377 18.5244 7.75347 19.9753 8.47732 21.2255C9.20117 22.4756 10.3103 23.4579 11.6388 24.0253C12.9673 24.5928 14.4437 24.7149 15.8474 24.3735C17.2511 24.0321 18.5065 23.2454 19.426 22.1312C20.3454 21.017 20.8795 19.635 20.9482 18.1921C21.017 16.7491 20.6168 15.3226 19.8075 14.126C19.713 13.9974 19.5918 13.8908 19.4521 13.8136C19.3125 13.7363 19.1577 13.6903 18.9986 13.6786C18.8394 13.667 18.6796 13.6899 18.5301 13.746C18.3807 13.802 18.2452 13.8898 18.133 14.0032L18.1218 14.0144C17.9417 14.2007 17.8311 14.4433 17.8088 14.7015C17.7864 14.9597 17.8536 15.2177 17.999 15.4322C18.5207 16.2233 18.7777 17.1596 18.7329 18.1062C18.6882 19.0527 18.344 19.9606 17.75 20.699C17.156 21.4373 16.3428 21.968 15.4278 22.2144C14.5128 22.4608 13.5432 22.4103 12.6587 22.0702C11.7743 21.73 11.0207 21.1177 10.5066 20.3217C9.99251 19.5256 9.74451 18.5869 9.79834 17.6408C9.85217 16.6947 10.205 15.7901 10.8061 15.0575C11.4072 14.3249 12.2253 13.8021 13.1427 13.5645V15.9535C12.8037 16.1466 12.5218 16.426 12.3258 16.7632C12.1297 17.1005 12.0264 17.4836 12.0263 17.8737C12.0263 18.4659 12.2615 19.0338 12.6802 19.4526C13.099 19.8713 13.6669 20.1065 14.2591 20.1065C14.8512 20.1065 15.4192 19.8713 15.8379 19.4526C16.2566 19.0338 16.4919 18.4659 16.4919 17.8737C16.4931 17.4834 16.3904 17.0997 16.1942 16.7622C15.998 16.4247 15.7154 16.1456 15.3755 15.9535V7.50244C15.3746 7.29249 15.2908 7.09139 15.1423 6.94293C14.9939 6.79447 14.7928 6.71068 14.5828 6.7098C12.4626 6.64894 10.3688 7.19301 8.54641 8.27837C6.72401 9.36372 5.24829 10.9455 4.29183 12.8387C3.33536 14.732 2.9377 16.8584 3.14533 18.9693C3.35296 21.0803 4.15731 23.0884 5.46432 24.759C6.77132 26.4296 8.52695 27.6936 10.5259 28.4031C12.5248 29.1126 14.6845 29.2383 16.7522 28.7655C18.82 28.2927 20.7104 27.2409 22.2024 25.7333C23.6944 24.2256 24.7263 22.3243 25.1774 20.2517C25.5411 18.6292 25.5322 16.9454 25.1512 15.3269C24.7703 13.7084 24.0273 12.1974 22.9781 10.9074C22.8798 10.7847 22.7567 10.684 22.6168 10.6121C22.4769 10.5403 22.3234 10.4987 22.1664 10.4903C22.0093 10.4819 21.8523 10.5067 21.7055 10.5632C21.5587 10.6197 21.4255 10.7066 21.3147 10.8181H21.3102Z" fill="#384553"/>
</g>
<defs>
<clipPath id="clip0_809_1119">
<rect width="26.7935" height="26.7935" fill="white" transform="translate(0.862305 4.46918)"/>
</clipPath>
</defs>
</svg>