<svg width="28" height="37" viewBox="0 0 28 37" fill="none" xmlns="http://www.w3.org/2000/svg">
<g clip-path="url(#clip0_809_85)">
<path d="M20.9574 29.8886H7.54951C6.95927 29.8856 6.39422 29.6491 5.9779 29.2307C5.56158 28.8123 5.32787 28.246 5.32788 27.6558L5.33904 9.79346C5.33904 9.20322 5.57274 8.63698 5.98906 8.21857C6.40538 7.80016 6.97043 7.56362 7.56067 7.56067H15.5652C15.8582 7.56049 16.1483 7.61864 16.4185 7.73173C16.6888 7.84482 16.9338 8.01058 17.1393 8.21934L22.5315 13.6115C22.7403 13.8171 22.9061 14.0621 23.0191 14.3324C23.1322 14.6026 23.1904 14.8927 23.1902 15.1856V27.1981L18.9144 22.9111C19.5929 21.8831 19.9124 20.6595 19.823 19.431C19.7336 18.2025 19.2404 17.0381 18.4202 16.1192C17.6 15.2002 16.4989 14.5784 15.2884 14.3505C14.0779 14.1226 12.8261 14.3015 11.7279 14.8594C10.6297 15.4172 9.74683 16.3226 9.21687 17.4345C8.6869 18.5464 8.5396 19.8023 8.7979 21.0067C9.05621 22.211 9.70561 23.2961 10.6449 24.0929C11.5843 24.8897 12.7607 25.3534 13.9911 25.4118C14.0882 25.4118 14.1876 25.4196 14.2847 25.4196C15.3712 25.4148 16.4329 25.0941 17.3403 24.4964L22.2859 29.442C21.9035 29.7315 21.4371 29.8883 20.9574 29.8886V29.8886ZM14.259 23.1902C13.5966 23.1902 12.9491 22.9938 12.3983 22.6258C11.8476 22.2577 11.4183 21.7347 11.1648 21.1227C10.9113 20.5107 10.845 19.8373 10.9742 19.1876C11.1034 18.5379 11.4224 17.9412 11.8908 17.4728C12.3592 17.0044 12.956 16.6854 13.6056 16.5562C14.2553 16.427 14.9287 16.4933 15.5407 16.7468C16.1527 17.0003 16.6758 17.4295 17.0438 17.9803C17.4118 18.5311 17.6082 19.1786 17.6082 19.841C17.6082 20.7293 17.2554 21.5812 16.6273 22.2092C15.9992 22.8373 15.1473 23.1902 14.259 23.1902V23.1902Z" fill="#384553"/>
</g>
<defs>
<clipPath id="clip0_809_85">
<rect width="26.7935" height="26.7935" fill="white" transform="translate(0.862305 5.32788)"/>
</clipPath>
</defs>
</svg>