<svg width="36" height="48" viewBox="0 0 36 48" fill="none" xmlns="http://www.w3.org/2000/svg">
<path d="M22.8064 10.7815H17.6791C16.9372 10.772 16.2297 10.4759 15.7119 9.95833C15.1942 9.44076 14.9087 8.74409 14.9182 8.02152V2.89251C14.9087 2.17 15.1942 1.47339 15.712 0.955915C16.2297 0.438445 16.9373 0.142499 17.6791 0.133179L22.8064 0.133179C23.5479 0.14282 24.2552 0.438906 24.7727 0.956342C25.2902 1.47378 25.5755 2.17021 25.566 2.89251V8.02152C25.5757 8.74393 25.2904 9.44051 24.7729 9.95808C24.2554 10.4756 23.5481 10.7718 22.8064 10.7815Z" fill="white"/>
<path d="M9.35153 22.8981H3.51582C3.09805 22.8928 2.68542 22.8075 2.30151 22.6469C1.9176 22.4863 1.56993 22.2535 1.27834 21.962C0.986749 21.6705 0.75696 21.3258 0.602094 20.9478C0.447228 20.5697 0.370319 20.1656 0.375758 19.7586V13.9212C0.365278 13.0992 0.690096 12.3068 1.27886 11.7181C1.86763 11.1293 2.67219 10.7923 3.51582 10.7811H9.35153C10.1953 10.7921 11 11.1291 11.5889 11.7179C12.1778 12.3066 12.5027 13.0991 12.4922 13.9212V19.7586C12.4977 20.1657 12.4207 20.5699 12.2658 20.948C12.1108 21.3262 11.8809 21.6709 11.5892 21.9624C11.2975 22.254 10.9497 22.4867 10.5656 22.6472C10.1815 22.8078 9.76878 22.893 9.3509 22.8981" fill="white"/>
<path d="M8.7744 35.5458H5.24083C4.72973 35.5395 4.24209 35.3356 3.88504 34.979C3.52799 34.6224 3.33073 34.1421 3.33659 33.6438V30.109C3.32989 29.61 3.52672 29.1288 3.88381 28.7712C4.24089 28.4136 4.72901 28.2089 5.24083 28.2021H8.7744C9.02798 28.2052 9.27846 28.2569 9.51152 28.3544C9.74457 28.4519 9.95562 28.5933 10.1326 28.7704C10.3096 28.9475 10.449 29.1569 10.5429 29.3866C10.6368 29.6163 10.6834 29.8618 10.6799 30.109V33.6438C10.6829 33.8907 10.6359 34.1357 10.5418 34.3649C10.4477 34.5941 10.3081 34.803 10.1312 34.9796C9.95423 35.1562 9.74334 35.2971 9.51054 35.3943C9.27774 35.4914 9.0276 35.5429 8.7744 35.5458" fill="white"/>
<path d="M18.5119 47.2825H14.2682C13.9643 47.2789 13.664 47.2169 13.3847 47.1001C13.1054 46.9833 12.8524 46.814 12.6403 46.6019C12.4281 46.3898 12.261 46.139 12.1484 45.8639C12.0358 45.5888 11.98 45.2948 11.9841 44.9987V40.7546C11.98 40.4584 12.0358 40.1644 12.1484 39.8893C12.261 39.6141 12.4281 39.3633 12.6402 39.1512C12.8523 38.939 13.1053 38.7696 13.3847 38.6528C13.664 38.5359 13.9642 38.4739 14.2682 38.4702H18.5119C18.8159 38.4739 19.1162 38.5359 19.3955 38.6528C19.6748 38.7696 19.9278 38.939 20.1399 39.1512C20.3521 39.3633 20.5192 39.6141 20.6318 39.8893C20.7444 40.1644 20.8002 40.4584 20.796 40.7546V44.9987C20.8002 45.2948 20.7443 45.5888 20.6318 45.8639C20.5192 46.139 20.352 46.3898 20.1399 46.6019C19.9278 46.814 19.6748 46.9833 19.3954 47.1001C19.1161 47.2169 18.8159 47.2789 18.5119 47.2825" fill="white"/>
<path d="M33.929 13.0846H31.0976C30.6886 13.0791 30.2986 12.9157 30.0132 12.6303C29.7277 12.3449 29.5702 11.9609 29.5751 11.5625V8.73475C29.5695 8.33586 29.7268 7.95113 30.0123 7.66515C30.2978 7.37916 30.6882 7.21533 31.0976 7.20966H33.929C34.3383 7.21548 34.7284 7.37943 35.0135 7.66543C35.2987 7.95143 35.4556 8.33607 35.4497 8.73475V11.5625C35.455 11.9607 35.2978 12.3446 35.0126 12.63C34.7275 12.9154 34.3378 13.0789 33.929 13.0846" fill="white"/>
<path d="M24.2695 25.7902C23.231 25.2051 22.1619 24.668 21.1311 24.0741C20.7049 23.8354 20.3146 23.5376 19.9719 23.1895C19.7857 23.0201 19.6418 22.8094 19.5518 22.5743C19.4618 22.3391 19.4282 22.0862 19.4538 21.8358C19.4793 21.5853 19.5632 21.3443 19.6988 21.1322C19.8344 20.9201 20.0178 20.7427 20.2344 20.6144C20.5274 20.4555 20.8476 20.3528 21.1783 20.3117C22.1157 20.2022 23.062 20.4217 23.8556 20.9324C24.281 21.1797 24.7423 21.3589 25.223 21.4638C25.4602 21.5079 25.7051 21.4789 25.9255 21.3807C26.1458 21.2825 26.3311 21.1197 26.4569 20.9139C26.5979 20.7283 26.6783 20.5038 26.6871 20.2709C26.6959 20.038 26.6327 19.808 26.5061 19.6123C26.3059 19.2699 26.0449 18.9668 25.7359 18.7182C24.5876 17.8599 23.1925 17.3961 21.7589 17.3961C20.7018 17.3935 19.6617 17.662 18.738 18.176C17.7738 18.6956 17.0396 19.5579 16.6802 20.5925C16.3209 21.6271 16.3626 22.7589 16.7971 23.7643C17.2207 24.7791 17.9819 25.6164 18.9519 26.1344C19.7937 26.6204 20.6712 27.0407 21.5341 27.489C22.2744 27.8335 22.9491 28.3042 23.528 28.88C23.8544 29.1581 24.0719 29.5427 24.1421 29.9657C24.2122 30.3887 24.1304 30.8229 23.9112 31.1914C23.744 31.43 23.5273 31.6297 23.2759 31.7768C23.0245 31.924 22.7443 32.0151 22.4544 32.044C21.3343 32.2147 20.1912 31.9533 19.2566 31.3127C18.9222 31.0838 18.5663 30.8881 18.1938 30.7283C17.9699 30.6228 17.7208 30.5821 17.4749 30.611C17.229 30.64 16.9961 30.7373 16.8028 30.892C16.6094 31.0467 16.4634 31.2525 16.3812 31.4861C16.299 31.7196 16.284 31.9716 16.3379 32.2133C16.4465 32.6749 16.7097 33.0855 17.0838 33.3769C18.1202 34.1987 19.3633 34.7187 20.6761 34.8796C21.989 35.0405 23.3208 34.8361 24.525 34.2889C25.0846 34.0218 25.5834 33.6426 25.9904 33.1747C26.3975 32.7069 26.7041 32.1605 26.8913 31.5694C27.0786 30.9782 27.1424 30.3549 27.0789 29.738C27.0154 29.1212 26.8259 28.524 26.5221 27.9833C26.0103 27.0413 25.2249 26.2766 24.2695 25.7902V25.7902Z" fill="white"/>
</svg>